<svg width="1590" height="415" viewBox="0 0 1590 415" fill="none" xmlns="http://www.w3.org/2000/svg">
<path fill-rule="evenodd" clip-rule="evenodd" d="M211.262 102.076C213.765 104.222 217.343 108.347 219.393 110.993C221.301 113.449 225.425 120.46 226.928 121.318C226.975 118.003 225.783 117.241 225.473 114.403L223.303 109.754C212.335 79.162 190.28 31.7842 167.246 11.7554L160.046 6.46208C149.482 -0.0711403 150.818 5.74676 141.018 2.95703L121.991 7.15354L122.373 7.46351L122.73 7.77348L123.493 8.41727L123.636 8.53649L124.28 9.08493L124.709 9.44256L125.09 9.75253C180.742 61.7321 161.619 59.4908 211.262 102.124V102.076Z" fill="url(#paint0_linear_84_209)"/>
<path fill-rule="evenodd" clip-rule="evenodd" d="M3.77258 195.497C4.60712 212.02 20.8687 243.209 31.956 257.777C68.7948 306.037 131.242 330.597 192.067 315.837C200.461 313.81 219.345 308.231 225.377 304.32C228.024 303.558 233.46 301.053 235.106 299.528L225.807 280.095C222.301 272.918 219.416 267.076 216.126 260.328C213.503 254.94 199.03 223.8 196.55 221.415C189.922 222.846 164.432 240.967 132.601 229.117C116.459 223.108 103.583 212.354 95.6194 197.309C94.4748 195.163 93.7352 192.85 92.3045 190.895C91.4699 187.128 89.8488 183.48 88.8716 178.997C87.8936 174.443 87.1548 170.317 87.0352 165.168C86.773 152.936 88.6803 147.714 91.2077 137.389C102.82 106.464 120.774 100.979 125.925 95.6624C129.573 94.6374 133.889 91.9435 137.775 90.7032C149.101 87.0791 156.445 86.3633 168.39 87.0312C174.375 87.3652 178.739 88.7242 184.104 89.2486C193.283 92.0383 200.127 95.138 206.636 100.741C209.14 102.888 212.716 107.012 214.767 109.659C216.65 112.115 220.799 119.125 222.301 119.983C222.349 116.669 221.157 115.907 220.847 113.069L218.677 108.419C207.709 77.8275 185.653 30.4498 162.62 10.4209L155.419 5.1276C144.857 -1.40562 146.192 4.41229 136.392 1.62256C115.195 5.41373 97.6933 10.874 79.4529 21.9375C77.617 23.0581 74.2074 24.8226 73.0866 26.3487C66.6488 28.5423 51.0788 43.0631 45.1417 49.2149L41.9705 53.0299C36.0333 56.678 16.7198 86.1011 14.3831 95.6863C9.97196 101.337 3.15264 125.968 2.34195 134.981C-1.25847 146.331 -0.638529 185.268 3.7249 195.497H3.77258Z" fill="url(#paint1_linear_84_209)"/>
<path d="M115.119 151.485V189.117V200.366H131.546V151.485H115.119Z" fill="#5A9551"/>
<path d="M171.497 151.485V189.117V200.366H187.924V151.485H171.497Z" fill="#8443D6"/>
<path d="M143.511 171.323V195.571V202.819H159.735V171.323H143.511Z" fill="#508B47"/>
<path d="M123.636 130.419L108.223 148.417L123.23 134.918L151.825 167.437L182.042 134.714L185.084 136.963L188.126 121.624L173.119 126.942L175.755 129.6L151.825 160.074L123.636 130.419Z" fill="#9961DF"/>
<path fill-rule="evenodd" clip-rule="evenodd" d="M264.221 232.954C266.128 239.75 288.804 302.102 290.353 304.104C292.142 304.414 294.86 304.629 297.578 304.653C294.669 304.676 291.712 304.438 289.781 304.104C291.522 305.249 357.808 305.75 361.814 304.319L397.412 206.368L415.748 156.32C421.757 139.535 427.909 122.844 434.108 106.009L461.576 30.4725C463.436 25.3221 470.208 9.03679 470.684 4.53033C468.276 5.93712 462.101 15.57 460.575 17.7398C452.42 29.2803 395.147 108.322 394.05 111.59C391.189 113.735 378.599 132.524 375.166 137.364C371.852 142.062 369.086 145.925 365.843 150.359C362.672 154.746 359.859 159.444 356.353 163.378C355.399 165.476 337.421 190.655 336.182 191.252C333.463 188.534 311.98 116.883 307.116 106.272C292.642 71.9846 274.95 49.2137 259.237 35.7181C256.042 32.9761 253.515 31.0447 250.009 28.5411C244.239 24.4161 235.799 18.8367 229.742 16.5715C223.352 11.7312 197.506 3.8627 188.087 2.40823C179.146 1.04913 173.042 0.0238439 163.147 0C152.917 0 145.955 0.548409 136.418 1.62138C144.143 2.81358 161.596 12.6373 170.777 20.2673C195.097 40.463 211.621 79.5431 218.679 108.418L220.849 113.067C221.135 115.881 222.351 116.668 222.279 119.982L253.681 204.389C256.614 213.236 260.596 224.562 264.173 232.931L264.221 232.954Z" fill="url(#paint2_linear_84_209)"/>
<path fill-rule="evenodd" clip-rule="evenodd" d="M633.2 130.422V84.7669H578.659V32.8862V32.6556C575.54 1.41195 528.163 0.604918 524.003 32.5403V33.1168C524.003 47.4128 524.003 61.8241 524.003 76.1201V84.7669H497.542V130.422H524.003V250.209C524.003 268.424 527.701 288.139 542.029 300.706C555.896 312.811 574.731 316.27 592.641 316.27H633.2V269.808H600.73C595.299 269.808 587.441 269.231 583.282 265.427C579.353 261.853 578.659 255.281 578.659 250.324V130.537H633.2V130.422ZM722.291 84.7669H667.982V316.27H722.291V194.639C722.291 180.112 724.256 160.282 735.117 149.56C745.286 139.645 759.846 136.878 773.596 136.878H789.312V81.0776H785.383C770.708 81.0776 756.264 83.8446 743.322 91.1079C740.78 92.4913 738.353 94.1054 735.926 95.8348L722.176 105.75V84.6516L722.291 84.7669ZM992.222 316.27H1046.99V84.7669H992.222V108.632L978.587 99.1782C974.773 96.5265 970.729 94.1054 966.569 91.9149C951.663 84.0751 935.254 81.0776 918.499 81.0776C898.74 81.0776 880.02 85.9198 863.034 96.0653C845.932 106.211 832.759 120.507 823.284 138.031C813 157.054 808.724 178.037 808.724 199.596C808.724 221.155 813 242.369 823.168 261.738C832.528 279.492 845.47 294.134 862.572 304.626C879.327 315.002 897.815 320.075 917.575 320.075C934.33 320.075 950.854 316.846 965.76 309.122C970.151 306.816 974.427 304.28 978.471 301.513L992.106 291.944V316.501L992.222 316.27ZM992.222 200.288C992.222 213.662 989.68 226.92 983.209 238.795C977.547 249.056 969.92 257.587 959.636 263.467C949.93 269.116 939.414 271.883 928.321 271.883C917.228 271.883 906.828 268.886 897.122 263.236C886.838 257.241 879.096 248.594 873.434 238.218C866.963 226.343 864.305 212.97 864.305 199.481C864.305 185.992 866.732 173.079 873.318 161.435C878.98 151.405 886.722 143.104 896.891 137.339C906.597 131.805 917.113 129.154 928.321 129.154C939.53 129.154 950.045 131.921 959.636 137.57C969.805 143.45 977.431 151.866 983.209 162.011C989.795 173.771 992.222 186.914 992.222 200.288ZM1268.05 316.27H1322.7V33.3474C1322.7 -9.42534 1268.05 -4.23728 1268.05 33.2321V107.825L1254.64 99.0629C1249.9 95.95 1244.82 93.2984 1239.74 90.9926C1225.52 84.6516 1210.38 81.0776 1194.79 81.0776C1174.79 81.0776 1156.08 85.8045 1138.86 96.0653C1121.76 106.211 1108.58 120.507 1099.11 138.031C1088.82 157.054 1084.55 178.037 1084.55 199.596C1084.55 221.155 1088.82 242.369 1098.99 261.738C1108.35 279.492 1121.41 294.134 1138.63 304.626C1155.61 315.002 1174.33 320.075 1194.21 320.075C1210.96 320.075 1227.37 316.846 1242.28 309.007C1246.44 306.816 1250.48 304.395 1254.29 301.743L1268.05 292.059V316.385V316.27ZM1268.05 200.288C1268.05 213.662 1265.5 226.92 1258.92 238.795C1253.25 249.056 1245.63 257.587 1235.34 263.467C1225.64 269.116 1215.12 271.883 1204.03 271.883C1192.94 271.883 1182.54 268.886 1172.83 263.236C1162.55 257.241 1154.8 248.594 1149.03 238.218C1142.56 226.343 1140.01 212.97 1140.01 199.481C1140.01 185.992 1142.44 173.079 1149.03 161.435C1154.69 151.405 1162.43 143.104 1172.48 137.339C1182.19 131.805 1192.71 129.154 1203.91 129.154C1215.12 129.154 1225.64 131.921 1235.23 137.57C1245.4 143.45 1253.02 151.866 1258.8 162.011C1265.39 173.771 1267.81 186.914 1267.81 200.288H1268.05ZM1586.97 221.732L1587.55 218.388C1588.82 210.664 1589.28 202.824 1589.28 194.984C1589.28 174.232 1585.12 153.941 1574.95 135.61C1565.36 118.432 1551.96 104.827 1534.74 95.2583C1516.71 85.228 1496.84 80.9623 1476.27 80.9623C1455.7 80.9623 1434.56 85.3433 1415.95 95.7195C1398.16 105.634 1384.52 119.815 1374.93 137.685C1364.53 157.054 1360.49 178.383 1360.49 200.173C1360.49 221.962 1364.76 243.522 1375.39 262.775C1385.22 280.645 1398.97 294.826 1416.76 304.856C1435.13 315.232 1455.36 319.844 1476.27 319.844C1500.88 319.844 1524.69 314.195 1544.79 299.322C1561.09 287.217 1573.22 271.883 1580.61 253.321H1519.83C1509.09 267.502 1493.95 272.921 1476.27 272.921C1460.67 272.921 1446.69 268.309 1435.02 257.702C1427.51 250.9 1422.19 242.484 1419.19 232.8L1415.72 221.617H1587.09L1586.97 221.732ZM1533.93 176.423H1416.3L1420.57 164.778C1423.81 156.016 1428.78 148.407 1435.83 142.066C1446.81 132.267 1459.63 127.885 1474.31 127.885C1489.91 127.885 1504.12 132.036 1516.02 142.297C1523.19 148.522 1528.27 156.132 1530.81 165.355L1533.93 176.423Z" fill="url(#paint3_linear_84_209)"/>
<path d="M536.805 379.984C536.805 383.45 536.111 386.657 534.638 389.518C533.251 392.291 531.084 394.545 528.138 396.192C525.191 397.838 521.464 398.618 516.957 398.618C510.629 398.618 505.862 396.885 502.482 393.418C499.189 390.038 497.542 385.444 497.542 379.81V347.134H503.956V380.07C503.956 384.231 504.996 387.437 507.249 389.691C509.416 391.944 512.796 393.071 517.303 393.071C520.337 393.071 522.85 392.465 524.757 391.338C526.664 390.298 528.138 388.738 529.004 386.744C529.958 384.751 530.391 382.497 530.391 379.897V347.134H536.718V379.984H536.805Z" fill="#00081E"/>
<path d="M567.658 359.094C572.252 359.094 575.632 360.221 577.972 362.475C580.313 364.728 581.439 368.282 581.439 373.135V398.011H575.285V373.569C575.285 370.535 574.592 368.195 573.205 366.635C571.819 365.161 569.652 364.381 566.705 364.381C562.544 364.381 559.598 365.595 557.951 367.935C556.304 370.275 555.524 373.742 555.524 378.162V397.924H549.283V359.788H554.31L555.264 364.988H555.611C556.477 363.601 557.517 362.561 558.817 361.608C560.031 360.741 561.418 360.134 562.978 359.701C564.451 359.268 566.011 359.094 567.658 359.094Z" fill="#00081E"/>
<path d="M599.553 397.927H593.225V343.842H599.553V397.927Z" fill="#00081E"/>
<path d="M644.797 378.769C644.797 381.976 644.364 384.75 643.497 387.263C642.717 389.69 641.504 391.77 639.943 393.417C638.47 395.15 636.563 396.364 634.31 397.231C632.143 398.184 629.716 398.617 626.942 398.617C624.429 398.617 622.089 398.184 620.009 397.231C617.842 396.364 616.022 395.064 614.461 393.417C612.901 391.683 611.688 389.69 610.734 387.263C609.868 384.75 609.434 381.976 609.434 378.769C609.434 374.609 610.128 371.055 611.601 368.108C612.988 365.161 615.068 362.908 617.755 361.434C620.355 359.874 623.562 359.094 627.202 359.094C630.843 359.094 633.703 359.874 636.303 361.434C638.903 362.908 641.07 365.161 642.544 368.108C644.017 371.055 644.71 374.609 644.71 378.769H644.797ZM615.935 378.769C615.935 381.716 616.282 384.403 617.062 386.57C617.842 388.737 619.142 390.383 620.789 391.597C622.435 392.81 624.516 393.417 627.116 393.417C629.716 393.417 631.796 392.81 633.443 391.597C635.09 390.383 636.303 388.737 637.083 386.57C637.863 384.403 638.297 381.716 638.297 378.769C638.297 375.822 637.863 373.135 637.083 371.055C636.303 368.975 635.003 367.328 633.356 366.115C631.709 364.988 629.629 364.381 627.029 364.381C623.129 364.381 620.355 365.681 618.535 368.195C616.715 370.795 615.935 374.349 615.935 378.769Z" fill="#00081E"/>
<path d="M669.932 398.62C666.552 398.62 663.518 397.927 660.918 396.54C658.318 395.153 656.238 393.073 654.764 390.126C653.291 387.179 652.597 383.539 652.597 379.032C652.597 374.525 653.377 370.538 654.937 367.591C656.498 364.644 658.664 362.477 661.265 361.091C663.952 359.704 667.072 359.01 670.452 359.01C672.359 359.01 674.266 359.184 676.086 359.617C677.906 359.964 679.379 360.484 680.506 361.004L678.599 366.204C677.473 365.771 676.086 365.338 674.612 364.991C673.139 364.644 671.665 364.384 670.365 364.384C667.765 364.384 665.685 364.991 664.038 366.031C662.391 367.071 661.091 368.718 660.311 370.885C659.531 373.052 659.098 375.652 659.098 378.859C659.098 382.066 659.531 384.493 660.311 386.573C661.091 388.653 662.305 390.3 663.952 391.426C665.598 392.553 667.592 393.073 670.019 393.073C672.099 393.073 673.919 392.9 675.479 392.466C677.126 392.033 678.513 391.513 679.899 390.906V396.453C678.599 397.06 677.213 397.58 675.652 397.927C674.179 398.274 672.272 398.534 670.105 398.534L669.932 398.62Z" fill="#00081E"/>
<path d="M694.98 372.098C694.98 372.878 694.98 373.918 694.807 375.045C694.807 376.258 694.807 377.298 694.633 378.252H694.893C694.893 378.252 695.587 377.298 696.194 376.605C696.8 375.911 697.32 375.218 697.927 374.438C698.534 373.658 699.054 373.051 699.487 372.618L711.621 359.704H718.989L703.561 375.998L720.029 397.84H712.488L699.227 380.072L694.893 383.799V397.84H688.74V343.842H694.893V372.098H694.98Z" fill="#00081E"/>
<path d="M760.593 398.62C757.213 398.62 754.179 397.927 751.579 396.54C748.979 395.153 746.898 393.073 745.425 390.126C743.952 387.179 743.258 383.539 743.258 379.032C743.258 374.525 744.038 370.538 745.598 367.591C747.158 364.644 749.325 362.477 751.925 361.091C754.612 359.704 757.733 359.01 761.113 359.01C763.02 359.01 764.926 359.184 766.747 359.617C768.567 359.964 770.04 360.484 771.167 361.004L769.26 366.204C768.133 365.771 766.747 365.338 765.273 364.991C763.8 364.644 762.326 364.384 761.026 364.384C758.426 364.384 756.346 364.991 754.699 366.031C753.052 367.071 751.752 368.718 750.972 370.885C750.192 373.052 749.759 375.652 749.759 378.859C749.759 382.066 750.192 384.493 750.972 386.573C751.752 388.653 752.966 390.3 754.612 391.426C756.259 392.553 758.253 393.073 760.68 393.073C762.76 393.073 764.58 392.9 766.14 392.466C767.787 392.033 769.174 391.513 770.56 390.906V396.453C769.26 397.06 767.873 397.58 766.313 397.927C764.84 398.274 762.933 398.534 760.766 398.534L760.593 398.62Z" fill="#00081E"/>
<path d="M797.255 359.094C797.949 359.094 798.729 359.094 799.509 359.268C800.376 359.268 801.069 359.441 801.676 359.528L800.896 365.248C800.289 365.075 799.595 364.988 798.815 364.901C798.122 364.901 797.429 364.728 796.735 364.728C795.262 364.728 793.875 364.988 792.575 365.681C791.188 366.288 790.061 367.155 789.021 368.282C787.981 369.408 787.201 370.795 786.594 372.355C785.988 373.915 785.641 375.736 785.641 377.642V398.011H779.401V359.788H784.514L785.208 366.722H785.468C786.248 365.335 787.288 364.035 788.415 362.908C789.541 361.694 790.841 360.741 792.315 360.134C793.788 359.441 795.348 359.094 797.169 359.094H797.255Z" fill="#00081E"/>
<path d="M802.89 359.789H809.564L817.798 381.457C818.318 382.758 818.751 383.971 819.098 385.184C819.531 386.398 819.878 387.525 820.225 388.651C820.571 389.691 820.831 390.818 821.005 391.858H821.265C821.525 390.645 821.958 389.171 822.651 387.265C823.258 385.358 823.952 383.364 824.558 381.457L832.272 359.789H839.033L822.565 403.213C821.611 405.553 820.571 407.633 819.358 409.366C818.144 411.186 816.758 412.573 814.938 413.527C813.204 414.48 811.211 415 808.697 415C807.57 415 806.53 415 805.75 414.827C804.883 414.653 804.19 414.567 803.583 414.393V409.453C804.103 409.453 804.71 409.626 805.403 409.713C806.183 409.713 806.964 409.886 807.744 409.886C809.217 409.886 810.517 409.626 811.557 409.02C812.597 408.5 813.464 407.72 814.244 406.766C815.024 405.726 815.631 404.513 816.151 403.126L818.144 398.099L802.803 359.789H802.89Z" fill="#00081E"/>
<path d="M863.302 359.094C867.982 359.094 871.796 360.741 874.656 364.035C877.516 367.328 878.903 372.182 878.903 378.856C878.903 383.189 878.296 386.83 876.91 389.777C875.609 392.724 873.789 394.977 871.449 396.451C869.109 397.924 866.422 398.617 863.215 398.617C861.308 398.617 859.488 398.357 858.015 397.837C856.541 397.317 855.154 396.624 854.114 395.757C853.074 394.977 852.208 394.024 851.428 393.07H850.994C850.994 393.85 851.167 394.89 851.254 396.104C851.254 397.317 851.428 398.357 851.428 399.311V414.999H845.187V359.788H850.301L851.168 364.988H851.428C852.208 363.948 853.074 362.908 854.114 362.041C855.154 361.088 856.455 360.394 857.928 359.874C859.401 359.354 861.222 359.094 863.302 359.094ZM862.175 364.381C859.575 364.381 857.581 364.901 856.021 365.855C854.461 366.808 853.334 368.282 852.641 370.188C851.948 372.095 851.601 374.609 851.514 377.556V378.769C851.514 381.889 851.861 384.576 852.554 386.743C853.161 388.91 854.374 390.557 855.935 391.683C857.581 392.81 859.661 393.417 862.522 393.417C864.862 393.417 866.682 392.81 868.242 391.51C869.716 390.21 870.842 388.563 871.622 386.31C872.403 384.143 872.749 381.543 872.749 378.682C872.749 374.349 871.882 370.882 870.149 368.195C868.502 365.595 865.902 364.295 862.435 364.295L862.175 364.381Z" fill="#00081E"/>
<path d="M901.696 393.505C902.65 393.505 903.603 393.505 904.643 393.331C905.683 393.158 906.463 392.985 907.07 392.725V397.492C906.463 397.838 905.423 398.098 904.21 398.272C902.996 398.445 901.783 398.618 900.656 398.618C898.663 398.618 896.843 398.272 895.109 397.578C893.462 396.885 892.162 395.672 891.035 393.938C889.995 392.205 889.475 389.778 889.475 386.744V364.556H884.102V361.609L889.562 359.095L892.076 350.948H895.803V359.702H906.81V364.556H895.803V386.658C895.803 388.998 896.409 390.731 897.449 391.858C898.576 392.898 900.05 393.505 901.783 393.505H901.696Z" fill="#00081E"/>
<path d="M947.808 378.769C947.808 381.976 947.375 384.75 946.508 387.263C945.728 389.69 944.514 391.77 942.954 393.417C941.481 395.15 939.574 396.364 937.32 397.231C935.154 398.184 932.727 398.617 929.953 398.617C927.44 398.617 925.099 398.184 923.019 397.231C920.852 396.364 919.032 395.064 917.472 393.417C915.912 391.683 914.699 389.69 913.745 387.263C912.878 384.75 912.445 381.976 912.445 378.769C912.445 374.609 913.139 371.055 914.612 368.108C915.999 365.161 918.079 362.908 920.766 361.434C923.366 359.874 926.573 359.094 930.213 359.094C933.853 359.094 936.714 359.874 939.314 361.434C941.914 362.908 944.081 365.161 945.554 368.108C947.028 371.055 947.721 374.609 947.721 378.769H947.808ZM918.946 378.769C918.946 381.716 919.292 384.403 920.072 386.57C920.852 388.737 922.153 390.383 923.799 391.597C925.446 392.81 927.526 393.417 930.127 393.417C932.727 393.417 934.807 392.81 936.454 391.597C938.101 390.383 939.314 388.737 940.094 386.57C940.874 384.403 941.307 381.716 941.307 378.769C941.307 375.822 940.874 373.135 940.094 371.055C939.314 368.975 938.014 367.328 936.367 366.115C934.72 364.988 932.64 364.381 930.04 364.381C926.14 364.381 923.366 365.681 921.546 368.195C919.726 370.795 918.946 374.349 918.946 378.769Z" fill="#00081E"/>
<path d="M996.694 387.436C996.694 389.95 996.087 392.03 994.873 393.59C993.66 395.237 991.927 396.537 989.586 397.317C987.333 398.184 984.646 398.617 981.439 398.617C978.839 398.617 976.499 398.444 974.592 398.011C972.685 397.577 970.952 396.971 969.478 396.191V390.47C970.952 391.25 972.858 391.944 974.939 392.637C977.105 393.244 979.359 393.59 981.526 393.59C984.733 393.59 986.986 393.07 988.46 392.03C989.846 391.077 990.626 389.69 990.626 387.957C990.626 387.003 990.366 386.136 989.846 385.356C989.326 384.576 988.373 383.883 986.986 383.103C985.599 382.323 983.693 381.456 981.179 380.503C978.666 379.549 976.585 378.596 974.852 377.642C973.118 376.689 971.732 375.562 970.778 374.262C969.825 372.875 969.391 371.229 969.391 369.148C969.391 365.941 970.692 363.428 973.292 361.694C975.892 359.874 979.446 359.094 983.693 359.094C986.033 359.094 988.2 359.268 990.28 359.788C992.273 360.221 994.093 360.828 995.914 361.608L993.747 366.548C992.1 365.941 990.453 365.335 988.72 364.815C986.9 364.295 985.166 364.121 983.346 364.121C980.746 364.121 978.752 364.555 977.452 365.335C976.065 366.201 975.459 367.328 975.459 368.715C975.459 369.755 975.719 370.622 976.412 371.402C977.019 372.095 978.059 372.789 979.446 373.569C980.919 374.175 982.826 375.042 985.253 375.996C987.68 376.949 989.76 377.816 991.407 378.769C993.14 379.723 994.353 380.936 995.307 382.236C996.26 383.623 996.694 385.183 996.694 387.263V387.436Z" fill="#00081E"/>
<path d="M1041.59 359.094C1046.27 359.094 1050.08 360.741 1052.94 364.035C1055.8 367.328 1057.19 372.182 1057.19 378.856C1057.19 383.189 1056.58 386.83 1055.2 389.777C1053.9 392.724 1052.08 394.977 1049.74 396.451C1047.4 397.924 1044.71 398.617 1041.5 398.617C1039.6 398.617 1037.78 398.357 1036.3 397.837C1034.83 397.317 1033.44 396.624 1032.4 395.757C1031.36 394.977 1030.49 394.024 1029.71 393.07H1029.28C1029.28 393.85 1029.45 394.89 1029.54 396.104C1029.54 397.317 1029.71 398.357 1029.71 399.311V414.999H1023.47V359.788H1028.59L1029.45 364.988H1029.71C1030.49 363.948 1031.36 362.908 1032.4 362.041C1033.44 361.088 1034.74 360.394 1036.22 359.874C1037.69 359.354 1039.51 359.094 1041.59 359.094ZM1040.38 364.381C1037.78 364.381 1035.78 364.901 1034.22 365.855C1032.66 366.808 1031.53 368.282 1030.84 370.188C1030.15 372.095 1029.8 374.609 1029.71 377.556V378.769C1029.71 381.889 1030.06 384.576 1030.75 386.743C1031.36 388.91 1032.58 390.557 1034.14 391.683C1035.78 392.81 1037.86 393.417 1040.72 393.417C1043.06 393.417 1044.88 392.81 1046.44 391.51C1047.92 390.21 1049.04 388.563 1049.82 386.31C1050.6 384.143 1050.95 381.543 1050.95 378.682C1050.95 374.349 1050.08 370.882 1048.35 368.195C1046.7 365.595 1044.1 364.295 1040.64 364.295L1040.38 364.381Z" fill="#00081E"/>
<path d="M1100.35 378.769C1100.35 381.976 1099.92 384.75 1099.05 387.263C1098.27 389.69 1097.06 391.77 1095.5 393.417C1094.03 395.15 1092.12 396.364 1089.87 397.231C1087.7 398.184 1085.27 398.617 1082.5 398.617C1079.99 398.617 1077.65 398.184 1075.57 397.231C1073.4 396.364 1071.58 395.064 1070.02 393.417C1068.46 391.683 1067.25 389.69 1066.29 387.263C1065.42 384.75 1064.99 381.976 1064.99 378.769C1064.99 374.609 1065.68 371.055 1067.16 368.108C1068.55 365.161 1070.63 362.908 1073.31 361.434C1075.91 359.874 1079.12 359.094 1082.76 359.094C1086.4 359.094 1089.26 359.874 1091.86 361.434C1094.46 362.908 1096.63 365.161 1098.1 368.108C1099.57 371.055 1100.27 374.609 1100.27 378.769H1100.35ZM1071.49 378.769C1071.49 381.716 1071.84 384.403 1072.62 386.57C1073.4 388.737 1074.7 390.383 1076.35 391.597C1077.99 392.81 1080.07 393.417 1082.67 393.417C1085.27 393.417 1087.35 392.81 1089 391.597C1090.65 390.383 1091.86 388.737 1092.64 386.57C1093.42 384.403 1093.85 381.716 1093.85 378.769C1093.85 375.822 1093.42 373.135 1092.64 371.055C1091.86 368.975 1090.56 367.328 1088.91 366.115C1087.27 364.988 1085.19 364.381 1082.59 364.381C1078.69 364.381 1075.91 365.681 1074.09 368.195C1072.27 370.795 1071.49 374.349 1071.49 378.769Z" fill="#00081E"/>
<path d="M1122.98 393.505C1123.93 393.505 1124.88 393.505 1125.92 393.331C1126.96 393.158 1127.74 392.985 1128.35 392.725V397.492C1127.74 397.838 1126.7 398.098 1125.49 398.272C1124.28 398.445 1123.06 398.618 1121.94 398.618C1119.94 398.618 1118.12 398.272 1116.39 397.578C1114.74 396.885 1113.44 395.672 1112.32 393.938C1111.28 392.205 1110.76 389.778 1110.76 386.744V364.556H1105.38V361.609L1110.84 359.095L1113.36 350.948H1117.08V359.702H1128.09V364.556H1117.08V386.658C1117.08 388.998 1117.69 390.731 1118.73 391.858C1119.86 392.898 1121.33 393.505 1123.06 393.505H1122.98Z" fill="#00081E"/>
<path d="M1150.63 359.094C1153.92 359.094 1156.69 359.788 1159.03 361.261C1161.37 362.648 1163.19 364.641 1164.41 367.328C1165.71 369.928 1166.31 372.875 1166.31 376.342V380.069H1140.22C1140.22 384.403 1141.44 387.697 1143.52 389.95C1145.69 392.117 1148.63 393.33 1152.45 393.33C1154.87 393.33 1157.04 393.157 1158.86 392.724C1160.77 392.204 1162.67 391.597 1164.67 390.73V396.191C1162.76 397.057 1160.85 397.664 1158.86 398.011C1156.95 398.444 1154.7 398.617 1152.1 398.617C1148.46 398.617 1145.25 397.924 1142.48 396.451C1139.7 394.977 1137.54 392.724 1135.98 389.863C1134.5 386.916 1133.72 383.363 1133.72 379.203C1133.72 375.042 1134.42 371.489 1135.8 368.455C1137.19 365.508 1139.18 363.168 1141.7 361.521C1144.3 359.874 1147.25 359.094 1150.63 359.094ZM1150.54 364.208C1147.59 364.208 1145.17 365.161 1143.43 367.068C1141.7 368.975 1140.74 371.662 1140.4 375.129H1159.81C1159.81 372.962 1159.47 371.055 1158.86 369.408C1158.25 367.762 1157.21 366.461 1155.91 365.595C1154.53 364.641 1152.79 364.208 1150.63 364.208H1150.54Z" fill="#00081E"/>
<path d="M1194.4 359.094C1198.99 359.094 1202.37 360.221 1204.71 362.475C1207.05 364.728 1208.18 368.282 1208.18 373.135V398.011H1202.02V373.569C1202.02 370.535 1201.33 368.195 1199.94 366.635C1198.56 365.161 1196.39 364.381 1193.44 364.381C1189.28 364.381 1186.33 365.595 1184.69 367.935C1183.04 370.275 1182.26 373.742 1182.26 378.162V397.924H1176.02V359.788H1181.05L1182 364.988H1182.35C1183.21 363.601 1184.25 362.561 1185.55 361.608C1186.77 360.741 1188.16 360.134 1189.72 359.701C1191.19 359.268 1192.75 359.094 1194.4 359.094Z" fill="#00081E"/>
<path d="M1232.79 393.505C1233.74 393.505 1234.7 393.505 1235.74 393.331C1236.78 393.158 1237.56 392.985 1238.17 392.725V397.492C1237.56 397.838 1236.52 398.098 1235.31 398.272C1234.09 398.445 1232.88 398.618 1231.75 398.618C1229.76 398.618 1227.94 398.272 1226.2 397.578C1224.56 396.885 1223.26 395.672 1222.13 393.938C1221.09 392.205 1220.57 389.778 1220.57 386.744V364.556H1215.2V361.609L1220.66 359.095L1223.17 350.948H1226.9V359.702H1237.91V364.556H1226.9V386.658C1226.9 388.998 1227.5 390.731 1228.54 391.858C1229.67 392.898 1231.14 393.505 1232.88 393.505H1232.79Z" fill="#00081E"/>
<path d="M1251.94 359.789V397.926H1245.7V359.789H1251.94ZM1248.91 345.488C1249.86 345.488 1250.73 345.835 1251.42 346.441C1252.2 347.048 1252.55 348.088 1252.55 349.388C1252.55 350.688 1252.2 351.729 1251.42 352.335C1250.73 352.942 1249.86 353.375 1248.91 353.375C1247.87 353.375 1247 353.029 1246.31 352.335C1245.62 351.729 1245.27 350.688 1245.27 349.388C1245.27 348.088 1245.62 347.048 1246.31 346.441C1247 345.835 1247.87 345.488 1248.91 345.488Z" fill="#00081E"/>
<path d="M1278.47 359.183C1283.06 359.183 1286.62 360.137 1288.78 362.217C1290.95 364.297 1292.16 367.504 1292.16 371.924V397.926H1287.57L1286.36 392.552H1286.1C1285.06 393.939 1283.93 395.066 1282.72 395.933C1281.59 396.886 1280.29 397.579 1278.82 398.013C1277.34 398.446 1275.44 398.62 1273.36 398.62C1271.1 398.62 1269.02 398.186 1267.2 397.406C1265.38 396.626 1264 395.326 1262.96 393.679C1261.91 391.946 1261.39 389.866 1261.39 387.265C1261.39 383.538 1262.87 380.591 1265.9 378.511C1268.85 376.431 1273.53 375.304 1279.68 375.131L1286.18 374.958V372.704C1286.18 369.497 1285.49 367.33 1284.1 366.117C1282.72 364.904 1280.72 364.297 1278.3 364.297C1276.3 364.297 1274.4 364.557 1272.58 365.25C1270.76 365.857 1269.11 366.464 1267.55 367.244L1265.64 362.563C1267.29 361.61 1269.28 360.917 1271.54 360.31C1273.79 359.703 1276.13 359.356 1278.64 359.356L1278.47 359.183ZM1280.38 379.465C1275.61 379.638 1272.32 380.418 1270.58 381.718C1268.76 383.105 1267.81 384.925 1267.81 387.352C1267.81 389.519 1268.42 391.079 1269.72 392.032C1271.1 393.072 1272.66 393.506 1274.74 393.506C1277.95 393.506 1280.64 392.639 1282.8 390.906C1284.97 389.085 1286.01 386.312 1286.01 382.672V379.291L1280.38 379.465Z" fill="#00081E"/>
<path d="M1310.28 397.927H1303.95V343.842H1310.28V397.927Z" fill="#00081E"/>
<path d="M1365.49 376.346C1365.23 375.306 1364.88 374.352 1364.62 373.399C1364.36 372.446 1364.02 371.492 1363.84 370.539C1363.67 369.672 1363.5 368.892 1363.24 368.112C1363.06 367.332 1362.89 366.725 1362.8 366.205H1362.54C1362.54 366.725 1362.37 367.332 1362.2 368.112C1362.02 368.892 1361.76 369.672 1361.59 370.625C1361.42 371.579 1361.16 372.446 1360.9 373.399C1360.72 374.439 1360.38 375.393 1360.03 376.346L1353.18 397.754H1346.08L1335.59 359.618H1342.09L1347.38 379.986C1347.72 381.373 1348.07 382.76 1348.42 384.147C1348.76 385.533 1349.02 386.833 1349.28 388.134C1349.54 389.347 1349.8 390.387 1349.89 391.34H1350.15C1350.32 390.734 1350.41 390.04 1350.67 389.174C1350.84 388.307 1351.02 387.353 1351.28 386.487C1351.45 385.533 1351.8 384.58 1351.97 383.626C1352.23 382.673 1352.58 381.806 1352.75 381.026L1359.51 359.531H1366.36L1372.94 381.026C1373.29 382.066 1373.55 383.28 1373.9 384.493C1374.24 385.707 1374.59 386.92 1374.94 388.134C1375.2 389.26 1375.46 390.3 1375.54 391.167H1375.8C1375.8 390.387 1376.06 389.347 1376.32 388.22C1376.58 387.007 1376.93 385.62 1377.28 384.233C1377.63 382.76 1378.06 381.286 1378.41 379.9L1383.78 359.531H1390.19L1379.62 397.668H1372.25L1365.66 376.173L1365.49 376.346Z" fill="#00081E"/>
<path d="M1403.02 359.789V397.926H1396.78V359.789H1403.02ZM1399.98 345.488C1400.94 345.488 1401.8 345.835 1402.5 346.441C1403.28 347.048 1403.62 348.088 1403.62 349.388C1403.62 350.688 1403.28 351.729 1402.5 352.335C1401.8 352.942 1400.94 353.375 1399.98 353.375C1398.94 353.375 1398.08 353.029 1397.38 352.335C1396.69 351.729 1396.34 350.688 1396.34 349.388C1396.34 348.088 1396.69 347.048 1397.38 346.441C1398.08 345.835 1398.94 345.488 1399.98 345.488Z" fill="#00081E"/>
<path d="M1427.89 393.505C1428.85 393.505 1429.8 393.505 1430.84 393.331C1431.88 393.158 1432.66 392.985 1433.27 392.725V397.492C1432.66 397.838 1431.62 398.098 1430.41 398.272C1429.19 398.445 1427.98 398.618 1426.85 398.618C1424.86 398.618 1423.04 398.272 1421.3 397.578C1419.66 396.885 1418.36 395.672 1417.23 393.938C1416.19 392.205 1415.67 389.778 1415.67 386.744V364.556H1410.3V361.609L1415.76 359.095L1418.27 350.948H1422V359.702H1433.01V364.556H1422V386.658C1422 388.998 1422.6 390.731 1423.64 391.858C1424.77 392.898 1426.25 393.505 1427.98 393.505H1427.89Z" fill="#00081E"/>
<path d="M1447.05 359.704C1447.05 360.657 1447.05 361.524 1446.88 362.477C1446.88 363.431 1446.7 364.297 1446.7 365.077H1447.14C1447.92 363.691 1448.96 362.65 1450.17 361.784C1451.38 360.917 1452.77 360.31 1454.33 359.877C1455.8 359.357 1457.36 359.184 1459.01 359.184C1462.04 359.184 1464.64 359.704 1466.72 360.657C1468.8 361.61 1470.36 363.084 1471.4 365.164C1472.44 367.244 1472.96 369.844 1472.96 373.138V398.013H1466.81V373.571C1466.81 370.538 1466.12 368.198 1464.73 366.637C1463.34 365.164 1461.18 364.384 1458.23 364.384C1455.28 364.384 1453.2 364.991 1451.56 366.031C1449.91 367.071 1448.78 368.631 1448.18 370.624C1447.48 372.705 1447.14 375.218 1447.14 378.252V397.927H1440.9V343.842H1447.14V359.704H1447.05Z" fill="#00081E"/>
<path d="M1535.2 359.789V397.925H1530.08L1529.13 392.898H1528.87C1528.09 394.285 1527.05 395.325 1525.75 396.192C1524.45 397.059 1523.06 397.665 1521.59 398.012C1520.12 398.445 1518.47 398.619 1516.82 398.619C1513.79 398.619 1511.28 398.099 1509.2 397.232C1507.12 396.279 1505.56 394.719 1504.52 392.638C1503.47 390.558 1502.95 387.958 1502.95 384.751V359.789H1509.28V384.318C1509.28 387.351 1509.98 389.691 1511.36 391.165C1512.75 392.638 1514.83 393.418 1517.78 393.418C1520.72 393.418 1522.8 392.898 1524.45 391.858C1526.1 390.818 1527.31 389.258 1527.92 387.178C1528.61 385.098 1528.96 382.584 1528.96 379.637V359.789H1535.2Z" fill="#00081E"/>
<path d="M1572.12 387.436C1572.12 389.95 1571.51 392.03 1570.3 393.59C1569.08 395.237 1567.35 396.537 1565.01 397.317C1562.76 398.184 1560.07 398.617 1556.86 398.617C1554.26 398.617 1551.92 398.444 1550.01 398.011C1548.11 397.577 1546.37 396.971 1544.9 396.191V390.47C1546.37 391.25 1548.28 391.944 1550.36 392.637C1552.53 393.244 1554.78 393.59 1556.95 393.59C1560.16 393.59 1562.41 393.07 1563.88 392.03C1565.27 391.077 1566.05 389.69 1566.05 387.957C1566.05 387.003 1565.79 386.136 1565.27 385.356C1564.75 384.576 1563.8 383.883 1562.41 383.103C1561.02 382.323 1559.12 381.456 1556.6 380.503C1554.09 379.549 1552.01 378.596 1550.27 377.642C1548.54 376.689 1547.15 375.562 1546.2 374.262C1545.25 372.875 1544.81 371.229 1544.81 369.148C1544.81 365.941 1546.11 363.428 1548.71 361.694C1551.31 359.874 1554.87 359.094 1559.12 359.094C1561.46 359.094 1563.62 359.268 1565.7 359.788C1567.7 360.221 1569.52 360.828 1571.34 361.608L1569.17 366.548C1567.52 365.941 1565.88 365.335 1564.14 364.815C1562.32 364.295 1560.59 364.121 1558.77 364.121C1556.17 364.121 1554.17 364.555 1552.87 365.335C1551.49 366.201 1550.88 367.328 1550.88 368.715C1550.88 369.755 1551.14 370.622 1551.83 371.402C1552.44 372.095 1553.48 372.789 1554.87 373.569C1556.34 374.175 1558.25 375.042 1560.68 375.996C1563.1 376.949 1565.18 377.816 1566.83 378.769C1568.56 379.723 1569.78 380.936 1570.73 382.236C1571.68 383.623 1572.12 385.183 1572.12 387.263V387.436Z" fill="#00081E"/>
<path d="M1580.44 394.112C1580.44 392.292 1580.87 391.165 1581.74 390.385C1582.61 389.605 1583.56 389.345 1584.77 389.345C1585.99 389.345 1587.03 389.692 1587.89 390.385C1588.85 391.078 1589.28 392.292 1589.28 394.112C1589.28 395.932 1588.85 397.059 1587.89 397.839C1587.03 398.619 1585.99 398.966 1584.77 398.966C1583.56 398.966 1582.61 398.619 1581.74 397.839C1580.87 397.059 1580.44 395.845 1580.44 394.112Z" fill="#00081E"/>
<path d="M957.836 370.551C958.093 369.991 958.478 369.551 958.992 369.231C959.065 369.191 959.23 369.111 959.487 368.991C959.743 368.871 959.927 368.751 960.037 368.631C960.147 368.511 960.202 368.391 960.202 368.271C960.202 367.95 960.074 367.79 959.817 367.79C959.743 367.79 959.45 367.87 958.936 368.031C958.386 368.231 957.799 368.331 957.176 368.331H955.47V359.688H963.393V367.49C963.393 368.331 963.265 369.071 963.008 369.711C962.788 370.351 962.256 371.512 961.412 373.192L960.202 375.533H955.47L957.836 370.551Z" fill="#00081E"/>
<defs>
<linearGradient id="paint0_linear_84_209" x1="171.92" y1="47.6642" x2="234.915" y2="25.6495" gradientUnits="userSpaceOnUse">
<stop stop-color="#A9E8A0"/>
<stop offset="1" stop-color="#447F3B"/>
</linearGradient>
<linearGradient id="paint1_linear_84_209" x1="132.982" y1="280.238" x2="150.77" y2="54.4367" gradientUnits="userSpaceOnUse">
<stop stop-color="#447F3B"/>
<stop offset="1" stop-color="#A9E8A0"/>
</linearGradient>
<linearGradient id="paint2_linear_84_209" x1="134.435" y1="38.4488" x2="491.792" y2="61.702" gradientUnits="userSpaceOnUse">
<stop stop-color="#6B21CB"/>
<stop offset="0.543142" stop-color="#B080E9"/>
<stop offset="1" stop-color="#B07FE8"/>
</linearGradient>
<linearGradient id="paint3_linear_84_209" x1="801.22" y1="0.0930236" x2="859.584" y2="568.107" gradientUnits="userSpaceOnUse">
<stop stop-color="#B383E7"/>
<stop offset="1" stop-color="#6C21CB"/>
</linearGradient>
</defs>
</svg>
