<svg width="1723" height="351" viewBox="0 0 1723 351" fill="none" xmlns="http://www.w3.org/2000/svg">
<g opacity="0.8" filter="url(#filter0_f_405_139)">
<path d="M155.967 8.39989C92.1938 15.2631 -2.46932 81.1096 7.99344 198.768C20.9474 316.426 155.468 384.569 260.096 323.779L218.743 240.438C185.86 263.48 109.395 258.919 101.66 180.629C94.6849 110.034 211.768 47.7732 257.605 153.021C235.323 88.4631 207.75 22.4651 155.967 8.39989Z" fill="#4B4B4B"/>
<path d="M320.381 328.192H396.112L513.195 12.9662L368.211 208.573C333.335 87.4828 295.968 -2.8758 155.967 8.39989C207.75 22.4651 235.323 88.4631 257.605 153.021C276.484 207.722 288.617 256.012 320.381 328.192Z" fill="#4B4B4B"/>
</g>
<path d="M149.496 1.41882C85.4964 8.41863 -9.50372 75.5758 0.996282 195.576C13.9963 315.576 148.996 385.076 253.996 323.076L212.496 238.076C179.496 261.576 102.759 256.924 94.9963 177.076C87.9963 105.076 205.496 41.5759 251.496 148.919C229.136 83.0756 201.464 15.764 149.496 1.41882Z" fill="url(#paint0_linear_405_139)"/>
<path d="M314.496 327.576H390.496L507.996 6.07601L362.496 205.576C327.496 82.0758 289.996 -10.0813 149.496 1.41882C201.464 15.764 229.136 83.0756 251.496 148.919C270.443 204.708 282.619 253.959 314.496 327.576Z" fill="url(#paint1_linear_405_139)"/>
<mask id="mask0_405_139" style="mask-type:alpha" maskUnits="userSpaceOnUse" x="509" y="89" width="1214" height="261">
<path d="M512.195 162.682H532.695V136.403C532.695 128.736 534.45 120.881 539.634 115.231C560.403 92.5977 580.344 118.736 578.695 137.182V164.682H618.695V204.182H578.695C582.695 308.182 568.195 307.182 618.695 304.182V343.182H597.195L575.94 343.177C521.796 342.451 532.686 263.408 530.695 204.182H512.195V162.682Z" fill="white"/>
<path d="M576.695 343.182C576.442 343.182 576.19 343.181 575.94 343.177M575.94 343.177C521.796 342.451 532.686 263.408 530.695 204.182H512.195V162.682H532.695V136.403C532.695 128.736 534.45 120.881 539.634 115.231C560.403 92.5977 580.344 118.736 578.695 137.182V164.682H618.695V204.182H578.695C582.695 308.182 568.195 307.182 618.695 304.182V343.182H597.195L575.94 343.177Z" stroke="black" stroke-width="5"/>
<path d="M646.195 339.449V161.949L693.695 160.949V176.449C706.695 160.949 728.195 159.116 741.695 157.449V206.949C692.695 196.949 689.195 237.783 689.695 269.449V339.449H646.195Z" fill="white" stroke="black" stroke-width="5"/>
<path fill-rule="evenodd" clip-rule="evenodd" d="M1212.4 271.964C1219.24 290.631 1243.3 320.164 1284.9 288.964H1334.4C1331.9 328.464 1249.9 380.464 1185.4 314.464C1159.75 288.219 1136.4 172.464 1248.9 159.464C1284.07 158.797 1351.4 180.364 1339.4 271.964H1212.4ZM1289.11 226.586C1291.15 230.347 1292.19 234.378 1292.19 238.449H1251.69L1211.19 238.449C1211.19 234.378 1212.24 230.347 1214.28 226.586C1216.31 222.825 1219.3 219.408 1223.06 216.529C1226.82 213.65 1231.28 211.367 1236.2 209.809C1241.11 208.251 1246.38 207.449 1251.69 207.449C1257.01 207.449 1262.28 208.251 1267.19 209.809C1272.11 211.367 1276.57 213.65 1280.33 216.529C1284.09 219.408 1287.08 222.825 1289.11 226.586Z" fill="white"/>
<path d="M1284.9 288.964V286.464H1284.07L1283.4 286.964L1284.9 288.964ZM1212.4 271.964V269.464H1208.82L1210.05 272.823L1212.4 271.964ZM1334.4 288.964L1336.9 289.122L1337.07 286.464H1334.4V288.964ZM1185.4 314.464L1183.61 316.211L1183.61 316.211L1185.4 314.464ZM1248.9 159.464L1248.85 156.965L1248.73 156.967L1248.61 156.981L1248.9 159.464ZM1339.4 271.964V274.464H1341.6L1341.88 272.289L1339.4 271.964ZM1292.19 238.449V240.949H1294.69V238.449H1292.19ZM1289.11 226.586L1286.91 227.776L1286.91 227.776L1289.11 226.586ZM1251.69 238.449L1251.69 235.949L1251.69 235.949L1251.69 238.449ZM1211.19 238.449H1208.69V240.949L1211.19 240.949L1211.19 238.449ZM1223.06 216.529L1224.58 218.514L1224.58 218.514L1223.06 216.529ZM1267.19 209.809L1267.95 207.426L1267.95 207.426L1267.19 209.809ZM1280.33 216.529L1281.85 214.544L1281.85 214.544L1280.33 216.529ZM1283.4 286.964C1263.14 302.159 1247.72 302.222 1236.7 296.912C1225.42 291.476 1218.04 280.079 1214.75 271.105L1210.05 272.823C1213.6 282.516 1221.67 295.219 1234.53 301.416C1247.65 307.739 1265.06 306.969 1286.4 290.964L1283.4 286.964ZM1334.4 286.464H1284.9V291.464H1334.4V286.464ZM1183.61 316.211C1216.57 349.938 1254.22 353.621 1283.95 343.647C1298.76 338.677 1311.61 330.321 1320.94 320.628C1330.24 310.968 1336.22 299.783 1336.9 289.122L1331.91 288.806C1331.33 297.895 1326.13 308.022 1317.34 317.16C1308.57 326.263 1296.42 334.188 1282.36 338.906C1254.34 348.307 1218.73 344.99 1187.19 312.717L1183.61 316.211ZM1248.61 156.981C1220.05 160.282 1199.86 170.143 1186.15 183.699C1172.46 197.247 1165.44 214.292 1162.87 231.63C1160.3 248.952 1162.16 266.641 1166.27 281.662C1170.37 296.62 1176.79 309.228 1183.61 316.211L1187.19 312.717C1181.19 306.578 1175.07 294.875 1171.09 280.341C1167.13 265.87 1165.37 248.887 1167.82 232.364C1170.27 215.858 1176.9 199.887 1189.67 187.254C1202.43 174.63 1221.51 165.146 1249.19 161.948L1248.61 156.981ZM1341.88 272.289C1347.97 225.779 1333.93 196.597 1313.46 179.209C1293.14 161.952 1266.87 156.623 1248.85 156.965L1248.95 161.964C1266.11 161.638 1291.08 166.759 1310.22 183.019C1329.21 199.148 1342.83 226.549 1336.92 271.639L1341.88 272.289ZM1212.4 274.464H1339.4V269.464H1212.4V274.464ZM1294.69 238.449C1294.69 233.942 1293.53 229.504 1291.31 225.396L1286.91 227.776C1288.76 231.191 1289.69 234.815 1289.69 238.449H1294.69ZM1251.69 240.949H1292.19V235.949H1251.69V240.949ZM1211.19 240.949L1251.69 240.949L1251.69 235.949L1211.19 235.949L1211.19 240.949ZM1212.08 225.396C1209.86 229.504 1208.69 233.942 1208.69 238.449H1213.69C1213.69 234.815 1214.63 231.191 1216.48 227.776L1212.08 225.396ZM1221.54 214.544C1217.53 217.613 1214.3 221.293 1212.08 225.396L1216.48 227.776C1218.33 224.357 1221.07 221.202 1224.58 218.514L1221.54 214.544ZM1235.44 207.426C1230.28 209.063 1225.55 211.474 1221.54 214.544L1224.58 218.514C1228.09 215.826 1232.29 213.67 1236.95 212.192L1235.44 207.426ZM1251.69 204.949C1246.13 204.949 1240.61 205.788 1235.44 207.426L1236.95 212.192C1241.61 210.714 1246.62 209.949 1251.69 209.949V204.949ZM1267.95 207.426C1262.78 205.788 1257.26 204.949 1251.69 204.949V209.949C1256.77 209.949 1261.78 210.714 1266.44 212.192L1267.95 207.426ZM1281.85 214.544C1277.84 211.474 1273.11 209.063 1267.95 207.426L1266.44 212.192C1271.1 213.67 1275.3 215.826 1278.81 218.514L1281.85 214.544ZM1291.31 225.396C1289.09 221.293 1285.86 217.613 1281.85 214.544L1278.81 218.514C1282.32 221.202 1285.06 224.357 1286.91 227.776L1291.31 225.396Z" fill="black"/>
<path d="M1431.69 313.949C1431.69 328.985 1420.16 340.949 1406.19 340.949C1392.23 340.949 1380.69 328.985 1380.69 313.949C1380.69 298.913 1392.23 286.949 1406.19 286.949C1420.16 286.949 1431.69 298.913 1431.69 313.949Z" fill="white" stroke="black" stroke-width="5"/>
<path d="M1515.69 118.949C1515.69 133.985 1504.16 145.949 1490.19 145.949C1476.23 145.949 1464.69 133.985 1464.69 118.949C1464.69 103.913 1476.23 91.9492 1490.19 91.9492C1504.16 91.9492 1515.69 103.913 1515.69 118.949Z" fill="white" stroke="black" stroke-width="5"/>
<rect x="1469.69" y="164.949" width="42" height="179" fill="white" stroke="black" stroke-width="5"/>
<mask id="path-11-inside-1_405_139" fill="white">
<path fill-rule="evenodd" clip-rule="evenodd" d="M1629.69 345.449C1680.78 345.449 1722.19 303.588 1722.19 251.949C1722.19 200.311 1680.78 158.449 1629.69 158.449C1578.61 158.449 1537.19 200.311 1537.19 251.949C1537.19 303.588 1578.61 345.449 1629.69 345.449ZM1629.7 298.449C1654.84 298.449 1675.21 277.854 1675.21 252.449C1675.21 227.044 1654.84 206.449 1629.7 206.449C1604.57 206.449 1584.19 227.044 1584.19 252.449C1584.19 277.854 1604.57 298.449 1629.7 298.449Z"/>
</mask>
<path fill-rule="evenodd" clip-rule="evenodd" d="M1629.69 345.449C1680.78 345.449 1722.19 303.588 1722.19 251.949C1722.19 200.311 1680.78 158.449 1629.69 158.449C1578.61 158.449 1537.19 200.311 1537.19 251.949C1537.19 303.588 1578.61 345.449 1629.69 345.449ZM1629.7 298.449C1654.84 298.449 1675.21 277.854 1675.21 252.449C1675.21 227.044 1654.84 206.449 1629.7 206.449C1604.57 206.449 1584.19 227.044 1584.19 252.449C1584.19 277.854 1604.57 298.449 1629.7 298.449Z" fill="white"/>
<path d="M1717.19 251.949C1717.19 300.877 1677.97 340.449 1629.69 340.449V350.449C1683.59 350.449 1727.19 306.298 1727.19 251.949H1717.19ZM1629.69 163.449C1677.97 163.449 1717.19 203.021 1717.19 251.949H1727.19C1727.19 197.6 1683.59 153.449 1629.69 153.449V163.449ZM1542.19 251.949C1542.19 203.021 1581.42 163.449 1629.69 163.449V153.449C1575.8 153.449 1532.19 197.6 1532.19 251.949H1542.19ZM1629.69 340.449C1581.42 340.449 1542.19 300.877 1542.19 251.949H1532.19C1532.19 306.298 1575.8 350.449 1629.69 350.449V340.449ZM1670.21 252.449C1670.21 275.144 1652.02 293.449 1629.7 293.449V303.449C1657.65 303.449 1680.21 280.565 1680.21 252.449H1670.21ZM1629.7 211.449C1652.02 211.449 1670.21 229.755 1670.21 252.449H1680.21C1680.21 224.334 1657.65 201.449 1629.7 201.449V211.449ZM1589.19 252.449C1589.19 229.755 1607.38 211.449 1629.7 211.449V201.449C1601.76 201.449 1579.19 224.334 1579.19 252.449H1589.19ZM1629.7 293.449C1607.38 293.449 1589.19 275.144 1589.19 252.449H1579.19C1579.19 280.565 1601.76 303.449 1629.7 303.449V293.449Z" fill="black" mask="url(#path-11-inside-1_405_139)"/>
<path fill-rule="evenodd" clip-rule="evenodd" d="M890.695 176.949C853.324 146.783 770.95 147.024 754.926 232.439C751.048 253.111 753.216 274.922 762.775 293.657C781.915 331.171 823.74 365.228 890.695 325.449V340.949H936.195V160.949H890.695V176.949ZM838.695 302.449C863.824 302.449 884.195 279.616 884.195 251.449C884.195 223.283 863.824 200.449 838.695 200.449C813.566 200.449 793.195 223.283 793.195 251.449C793.195 279.616 813.566 302.449 838.695 302.449Z" fill="white"/>
<path d="M754.926 232.439L757.383 232.9L757.383 232.9L754.926 232.439ZM890.695 176.949L889.124 178.894L893.195 182.18V176.949H890.695ZM762.775 293.657L765.002 292.52L765.002 292.52L762.775 293.657ZM890.695 325.449H893.195V321.056L889.418 323.3L890.695 325.449ZM890.695 340.949H888.195V343.449H890.695V340.949ZM936.195 340.949V343.449H938.695V340.949H936.195ZM936.195 160.949H938.695V158.449H936.195V160.949ZM890.695 160.949V158.449H888.195V160.949H890.695ZM757.383 232.9C765.225 191.098 789.147 170.487 815.424 163.773C841.927 157.002 871.052 164.306 889.124 178.894L892.265 175.004C872.967 159.426 842.219 151.767 814.186 158.929C785.927 166.149 760.65 188.366 752.469 231.978L757.383 232.9ZM765.002 292.52C755.73 274.348 753.591 253.111 757.383 232.9L752.469 231.978C748.504 253.11 750.702 275.496 760.548 294.793L765.002 292.52ZM889.418 323.3C856.436 342.895 830.049 344.098 809.708 336.207C789.255 328.272 774.403 310.947 765.002 292.52L760.548 294.793C770.286 313.88 785.917 332.341 807.9 340.868C829.996 349.44 857.999 347.782 891.972 327.598L889.418 323.3ZM893.195 340.949V325.449H888.195V340.949H893.195ZM936.195 338.449H890.695V343.449H936.195V338.449ZM933.695 160.949V340.949H938.695V160.949H933.695ZM890.695 163.449H936.195V158.449H890.695V163.449ZM893.195 176.949V160.949H888.195V176.949H893.195ZM881.695 251.449C881.695 278.511 862.182 299.949 838.695 299.949V304.949C865.465 304.949 886.695 280.721 886.695 251.449H881.695ZM838.695 202.949C862.182 202.949 881.695 224.388 881.695 251.449H886.695C886.695 222.178 865.465 197.949 838.695 197.949V202.949ZM795.695 251.449C795.695 224.388 815.207 202.949 838.695 202.949V197.949C811.924 197.949 790.695 222.178 790.695 251.449H795.695ZM838.695 299.949C815.207 299.949 795.695 278.511 795.695 251.449H790.695C790.695 280.721 811.924 304.949 838.695 304.949V299.949Z" fill="black"/>
<path fill-rule="evenodd" clip-rule="evenodd" d="M1090.22 331.494V344.26H1136.22V134.08C1136.22 125.946 1135.06 117.65 1131.02 110.592C1127.68 104.751 1124.44 102.507 1118.72 101.76C1107.22 100.26 1093.22 103.76 1090.22 121.76C1089.12 128.317 1089.54 145.613 1089.91 160.5C1090.07 167.112 1090.22 173.249 1090.22 177.76C1063.22 158.76 954.94 140.26 953.216 252.76C951.251 380.967 1087.79 345.578 1090.22 331.494ZM1044.69 306.449C1069.82 306.449 1090.19 283.616 1090.19 255.449C1090.19 227.283 1069.82 204.449 1044.69 204.449C1019.57 204.449 999.195 227.283 999.195 255.449C999.195 283.616 1019.57 306.449 1044.69 306.449Z" fill="white"/>
<path d="M1090.22 344.26H1087.72V346.76H1090.22V344.26ZM1090.22 331.494H1092.72L1087.75 331.069L1090.22 331.494ZM1136.22 344.26V346.76H1138.72V344.26H1136.22ZM1131.02 110.592L1133.19 109.349L1133.19 109.349L1131.02 110.592ZM1118.72 101.76L1118.39 104.239L1118.39 104.239L1118.72 101.76ZM1090.22 121.76L1092.68 122.171L1090.22 121.76ZM1089.91 160.5L1087.41 160.561L1087.41 160.561L1089.91 160.5ZM1090.22 177.76L1088.78 179.805L1092.72 182.576V177.76H1090.22ZM953.216 252.76L955.716 252.798L953.216 252.76ZM1090.22 330.76L1092.67 330.305L1087.72 330.76H1090.22ZM1090.22 331.494H1087.72L1092.68 331.919L1090.22 331.494ZM1092.72 344.26V331.494H1087.72V344.26H1092.72ZM1136.22 341.76H1090.22V346.76H1136.22V341.76ZM1133.72 134.08V344.26H1138.72V134.08H1133.72ZM1128.85 111.834C1132.58 118.348 1133.72 126.14 1133.72 134.08H1138.72C1138.72 125.753 1137.54 116.952 1133.19 109.349L1128.85 111.834ZM1118.39 104.239C1120.99 104.577 1122.8 105.224 1124.31 106.302C1125.85 107.397 1127.28 109.081 1128.85 111.834L1133.19 109.349C1131.42 106.262 1129.56 103.903 1127.21 102.23C1124.84 100.538 1122.17 99.6895 1119.04 99.281L1118.39 104.239ZM1092.68 122.171C1094.07 113.843 1097.91 109.165 1102.49 106.635C1107.18 104.041 1112.97 103.531 1118.39 104.239L1119.04 99.281C1112.97 98.4889 1106 98.9791 1100.07 102.26C1094.02 105.605 1089.36 111.677 1087.75 121.349L1092.68 122.171ZM1092.4 160.44C1092.22 152.989 1092.03 144.972 1092.02 138.001C1092 130.958 1092.18 125.208 1092.68 122.171L1087.75 121.349C1087.16 124.87 1087 131.046 1087.02 138.011C1087.03 145.049 1087.23 153.124 1087.41 160.561L1092.4 160.44ZM1092.72 177.76C1092.72 173.212 1092.57 167.039 1092.4 160.44L1087.41 160.561C1087.57 167.185 1087.72 173.287 1087.72 177.76H1092.72ZM955.716 252.798C956.14 225.075 963.121 205.709 973.52 192.451C983.914 179.199 997.908 171.814 1012.8 168.384C1027.72 164.947 1043.48 165.499 1057.2 168.099C1070.96 170.707 1082.41 175.327 1088.78 179.805L1091.65 175.716C1084.52 170.693 1072.31 165.875 1058.13 163.187C1043.9 160.49 1027.42 159.885 1011.68 163.511C995.908 167.144 980.822 175.04 969.585 189.366C958.354 203.686 951.153 224.195 950.716 252.722L955.716 252.798ZM1087.75 331.069C1087.75 331.054 1087.74 331.178 1087.55 331.449C1087.36 331.715 1087.06 332.059 1086.6 332.466C1085.67 333.286 1084.27 334.218 1082.4 335.196C1078.65 337.147 1073.32 339.123 1066.9 340.738C1054.05 343.967 1037.16 345.664 1020.46 343.017C1003.77 340.373 987.416 333.422 975.341 319.493C963.279 305.579 955.231 284.403 955.716 252.798L950.716 252.722C950.218 285.221 958.5 307.699 971.563 322.768C984.612 337.821 1002.17 345.182 1019.68 347.956C1037.17 350.727 1054.74 348.949 1068.12 345.587C1074.8 343.907 1080.53 341.81 1084.71 339.63C1086.79 338.543 1088.57 337.395 1089.91 336.212C1091.18 335.091 1092.38 333.649 1092.68 331.919L1087.75 331.069ZM1087.69 255.449C1087.69 282.511 1068.18 303.949 1044.69 303.949V308.949C1071.47 308.949 1092.69 284.721 1092.69 255.449H1087.69ZM1044.69 206.949C1068.18 206.949 1087.69 228.388 1087.69 255.449H1092.69C1092.69 226.178 1071.47 201.949 1044.69 201.949V206.949ZM1001.69 255.449C1001.69 228.388 1021.21 206.949 1044.69 206.949V201.949C1017.92 201.949 996.695 226.178 996.695 255.449H1001.69ZM1044.69 303.949C1021.21 303.949 1001.69 282.511 1001.69 255.449H996.695C996.695 284.721 1017.92 308.949 1044.69 308.949V303.949ZM1087.72 330.76V331.494H1092.72V330.76H1087.72ZM1092.68 331.919C1092.77 331.398 1092.78 330.855 1092.67 330.305L1087.76 331.215C1087.74 331.14 1087.75 331.086 1087.75 331.07L1092.68 331.919Z" fill="black"/>
</mask>
<g mask="url(#mask0_405_139)">
<rect x="512.195" y="89.4492" width="1242" height="299" fill="url(#paint2_linear_405_139)"/>
</g>
<defs>
<filter id="filter0_f_405_139" x="2.89482" y="3.14922" width="514.6" height="347.6" filterUnits="userSpaceOnUse" color-interpolation-filters="sRGB">
<feFlood flood-opacity="0" result="BackgroundImageFix"/>
<feBlend mode="normal" in="SourceGraphic" in2="BackgroundImageFix" result="shape"/>
<feGaussianBlur stdDeviation="2.15" result="effect1_foregroundBlur_405_139"/>
</filter>
<linearGradient id="paint0_linear_405_139" x1="79.1948" y1="312.449" x2="308.195" y2="63.4492" gradientUnits="userSpaceOnUse">
<stop stop-color="#B3F0AA"/>
<stop offset="0.246088" stop-color="#B3F0AA"/>
<stop offset="0.736088" stop-color="#51A345"/>
<stop offset="1" stop-color="#222222"/>
</linearGradient>
<linearGradient id="paint1_linear_405_139" x1="443.195" y1="330.949" x2="97.1949" y2="-43.5508" gradientUnits="userSpaceOnUse">
<stop stop-color="#EEC879"/>
<stop offset="0.403703" stop-color="#DBBC7C"/>
<stop offset="1" stop-color="#222222"/>
</linearGradient>
<linearGradient id="paint2_linear_405_139" x1="512.195" y1="108.449" x2="1754.19" y2="388.449" gradientUnits="userSpaceOnUse">
<stop offset="0.00375254" stop-color="#D6B5FF"/>
<stop offset="0.546088" stop-color="#A259FF"/>
<stop offset="1" stop-color="#6419C4"/>
</linearGradient>
</defs>
</svg>
